<mxfile host="app.diagrams.net" modified="2024-03-18T23:05:19.958Z" agent="Mozilla/5.0 (Macintosh; Intel Mac OS X 10_15_7) AppleWebKit/537.36 (KHTML, like Gecko) Chrome/122.0.0.0 Safari/537.36" etag="jCw4hLmMN0-TCSwlz6kP" version="24.0.6" type="github">
  <diagram id="9fnjXT7nlAm7Ix4f8WDv" name="Page-1">
    <mxGraphModel dx="1306" dy="1012" grid="0" gridSize="10" guides="1" tooltips="1" connect="1" arrows="1" fold="1" page="1" pageScale="1" pageWidth="800" pageHeight="250" background="#EFF1F3" math="0" shadow="0">
      <root>
        <mxCell id="0" />
        <mxCell id="1" parent="0" />
        <mxCell id="qtAHDF-vXk4XrOakRFS1-1" value="&lt;font color=&quot;#4d4d4d&quot; style=&quot;font-size: 23px;&quot;&gt;熔断器（&lt;/font&gt;&lt;font color=&quot;#f19c99&quot; style=&quot;font-size: 23px;&quot;&gt;Closed&lt;/font&gt;&lt;font color=&quot;#4d4d4d&quot; style=&quot;font-size: 23px;&quot;&gt;）&lt;/font&gt;" style="text;html=1;strokeColor=none;fillColor=none;align=center;verticalAlign=middle;whiteSpace=wrap;rounded=0;" parent="1" vertex="1">
          <mxGeometry x="301" y="-212" width="213" height="30" as="geometry" />
        </mxCell>
        <mxCell id="qtAHDF-vXk4XrOakRFS1-4" value="&lt;font color=&quot;#4a909b&quot; style=&quot;font-size: 23px;&quot;&gt;A服务&lt;/font&gt;" style="text;html=1;strokeColor=none;fillColor=none;align=center;verticalAlign=middle;whiteSpace=wrap;rounded=0;" parent="1" vertex="1">
          <mxGeometry x="123" y="-67" width="146" height="30" as="geometry" />
        </mxCell>
        <mxCell id="qtAHDF-vXk4XrOakRFS1-5" value="&lt;font color=&quot;#4a909b&quot; style=&quot;font-size: 19px;&quot;&gt;公众号：小白debug&lt;/font&gt;" style="text;html=1;strokeColor=none;fillColor=none;align=center;verticalAlign=middle;whiteSpace=wrap;rounded=0;fontSize=16;textOpacity=60;" parent="1" vertex="1">
          <mxGeometry x="261" y="-76" width="282" height="30" as="geometry" />
        </mxCell>
        <mxCell id="AIzsohapeRoaQ22Scuxk-1" value="" style="shape=image;verticalLabelPosition=bottom;labelBackgroundColor=default;verticalAlign=top;aspect=fixed;imageAspect=0;image=data:image/svg+xml,PHN2ZyB4bWxuczp4bGluaz0iaHR0cDovL3d3dy53My5vcmcvMTk5OS94bGluayIgeG1sbnM9Imh0dHA6Ly93d3cudzMub3JnLzIwMDAvc3ZnIiBoZWlnaHQ9IjIwNDgiIHdpZHRoPSIyMDQ4IiB2ZXJzaW9uPSIxLjEiIHZpZXdCb3g9IjAgMCAxMDI0IDEwMjQiIGNsYXNzPSJpY29uIj48cGF0aCBmaWxsPSIjNDE2OTk2IiBkPSJNMCA3Mjh2MTM2YzAgMzUuMyAyOC43IDY0IDY0IDY0aDg5NmMzNS4zIDAgNjQtMjguNyA2NC02NFY3MjhjMC00LjQtMy42LTgtOC04SDhjLTQuNCAwLTggMy42LTggOHogbTc3NCA5NmMwIDQuNC0zLjYgOC04IDhINDI0Yy00LjQgMC04LTMuNi04LTh2LTQ4YzAtNC40IDMuNi04IDgtOGgzNDJjNC40IDAgOCAzLjYgOCA4djQ4eiBtMTIyIDBjMCA0LjQtMy42IDgtOCA4aC00OGMtNC40IDAtOC0zLjYtOC04di00OGMwLTQuNCAzLjYtOCA4LThoNDhjNC40IDAgOCAzLjYgOCA4djQ4ek0wIDUzNnYxNDRjMCA0LjQgMy42IDggOCA4aDEwMDhjNC40IDAgOC0zLjYgOC04VjUzNmMwLTQuNC0zLjYtOC04LThIOGMtNC40IDAtOCAzLjYtOCA4eiBtNzc0IDk2YzAgNC40LTMuNiA4LTggOEg0MjRjLTQuNCAwLTgtMy42LTgtOHYtNDhjMC00LjQgMy42LTggOC04aDM0MmM0LjQgMCA4IDMuNiA4IDh2NDh6IG0xMjIgMGMwIDQuNC0zLjYgOC04IDhoLTQ4Yy00LjQgMC04LTMuNi04LTh2LTQ4YzAtNC40IDMuNi04IDgtOGg0OGM0LjQgMCA4IDMuNiA4IDh2NDh6TTAgMzQ0djE0NGMwIDQuNCAzLjYgOCA4IDhoMTAwOGM0LjQgMCA4LTMuNiA4LThWMzQ0YzAtNC40LTMuNi04LTgtOEg4Yy00LjQgMC04IDMuNi04IDh6IG03NzQgOTZjMCA0LjQtMy42IDgtOCA4SDQyNGMtNC40IDAtOC0zLjYtOC04di00OGMwLTQuNCAzLjYtOCA4LThoMzQyYzQuNCAwIDggMy42IDggOHY0OHogbTEyMiAwYzAgNC40LTMuNiA4LTggOGgtNDhjLTQuNCAwLTgtMy42LTgtOHYtNDhjMC00LjQgMy42LTggOC04aDQ4YzQuNCAwIDggMy42IDggOHY0OHpNOTYwIDk2SDY0Yy0zNS4zIDAtNjQgMjguNy02NCA2NHYxMzZjMCA0LjQgMy42IDggOCA4aDEwMDhjNC40IDAgOC0zLjYgOC04VjE2MGMwLTM1LjMtMjguNy02NC02NC02NHpNNzc0IDI0OGMwIDQuNC0zLjYgOC04IDhINDI0Yy00LjQgMC04LTMuNi04LTh2LTQ4YzAtNC40IDMuNi04IDgtOGgzNDJjNC40IDAgOCAzLjYgOCA4djQ4eiBtMTIyIDBjMCA0LjQtMy42IDgtOCA4aC00OGMtNC40IDAtOC0zLjYtOC04di00OGMwLTQuNCAzLjYtOCA4LThoNDhjNC40IDAgOCAzLjYgOCA4djQ4eiIvPjwvc3ZnPg==;" parent="1" vertex="1">
          <mxGeometry x="540" y="-191" width="130" height="130" as="geometry" />
        </mxCell>
        <mxCell id="AIzsohapeRoaQ22Scuxk-2" value="" style="shape=image;verticalLabelPosition=bottom;labelBackgroundColor=default;verticalAlign=top;aspect=fixed;imageAspect=0;image=data:image/svg+xml,PHN2ZyB4bWxuczp4bGluaz0iaHR0cDovL3d3dy53My5vcmcvMTk5OS94bGluayIgeG1sbnM9Imh0dHA6Ly93d3cudzMub3JnLzIwMDAvc3ZnIiBoZWlnaHQ9IjIwNDgiIHdpZHRoPSIyMDQ4IiB2ZXJzaW9uPSIxLjEiIHZpZXdCb3g9IjAgMCAxMDI0IDEwMjQiIGNsYXNzPSJpY29uIj48cGF0aCBmaWxsPSIjMjk5MzlkIiBkPSJNMCA3Mjh2MTM2YzAgMzUuMyAyOC43IDY0IDY0IDY0aDg5NmMzNS4zIDAgNjQtMjguNyA2NC02NFY3MjhjMC00LjQtMy42LTgtOC04SDhjLTQuNCAwLTggMy42LTggOHogbTc3NCA5NmMwIDQuNC0zLjYgOC04IDhINDI0Yy00LjQgMC04LTMuNi04LTh2LTQ4YzAtNC40IDMuNi04IDgtOGgzNDJjNC40IDAgOCAzLjYgOCA4djQ4eiBtMTIyIDBjMCA0LjQtMy42IDgtOCA4aC00OGMtNC40IDAtOC0zLjYtOC04di00OGMwLTQuNCAzLjYtOCA4LThoNDhjNC40IDAgOCAzLjYgOCA4djQ4ek0wIDUzNnYxNDRjMCA0LjQgMy42IDggOCA4aDEwMDhjNC40IDAgOC0zLjYgOC04VjUzNmMwLTQuNC0zLjYtOC04LThIOGMtNC40IDAtOCAzLjYtOCA4eiBtNzc0IDk2YzAgNC40LTMuNiA4LTggOEg0MjRjLTQuNCAwLTgtMy42LTgtOHYtNDhjMC00LjQgMy42LTggOC04aDM0MmM0LjQgMCA4IDMuNiA4IDh2NDh6IG0xMjIgMGMwIDQuNC0zLjYgOC04IDhoLTQ4Yy00LjQgMC04LTMuNi04LTh2LTQ4YzAtNC40IDMuNi04IDgtOGg0OGM0LjQgMCA4IDMuNiA4IDh2NDh6TTAgMzQ0djE0NGMwIDQuNCAzLjYgOCA4IDhoMTAwOGM0LjQgMCA4LTMuNiA4LThWMzQ0YzAtNC40LTMuNi04LTgtOEg4Yy00LjQgMC04IDMuNi04IDh6IG03NzQgOTZjMCA0LjQtMy42IDgtOCA4SDQyNGMtNC40IDAtOC0zLjYtOC04di00OGMwLTQuNCAzLjYtOCA4LThoMzQyYzQuNCAwIDggMy42IDggOHY0OHogbTEyMiAwYzAgNC40LTMuNiA4LTggOGgtNDhjLTQuNCAwLTgtMy42LTgtOHYtNDhjMC00LjQgMy42LTggOC04aDQ4YzQuNCAwIDggMy42IDggOHY0OHpNOTYwIDk2SDY0Yy0zNS4zIDAtNjQgMjguNy02NCA2NHYxMzZjMCA0LjQgMy42IDggOCA4aDEwMDhjNC40IDAgOC0zLjYgOC04VjE2MGMwLTM1LjMtMjguNy02NC02NC02NHpNNzc0IDI0OGMwIDQuNC0zLjYgOC04IDhINDI0Yy00LjQgMC04LTMuNi04LTh2LTQ4YzAtNC40IDMuNi04IDgtOGgzNDJjNC40IDAgOCAzLjYgOCA4djQ4eiBtMTIyIDBjMCA0LjQtMy42IDgtOCA4aC00OGMtNC40IDAtOC0zLjYtOC04di00OGMwLTQuNCAzLjYtOCA4LThoNDhjNC40IDAgOCAzLjYgOCA4djQ4eiIvPjwvc3ZnPg==;" parent="1" vertex="1">
          <mxGeometry x="134" y="-192" width="131" height="131" as="geometry" />
        </mxCell>
        <mxCell id="qtAHDF-vXk4XrOakRFS1-6" value="" style="shape=image;verticalLabelPosition=bottom;labelBackgroundColor=default;verticalAlign=top;aspect=fixed;imageAspect=0;image=data:image/png,iVBORw0KGgoAAAANSUhEUgAAAgAAAAIACAYAAAD0eNT6AAAABHNCSVQICAgIfAhkiAAAAAlwSFlzAAAOxAAADsQBlSsOGwAAABl0RVh0U29mdHdhcmUAd3d3Lmlua3NjYXBlLm9yZ5vuPBoAACAASURBVHic7d13nFT1vf/x9+zO9gbssrssTViWjghIky4oYgFb0IvRmKixxoYSr2CJcH+JJjExmqi5iV0saATFICgiARQUJfRiQQV2Yam7uL3M749xDXC3zJwp58x8X8/H4zx8PNzz/Z7Pnh3m+z7teyQAAAAAAAAAAAAAAAAAAAAAAAAAAAAAAAAAAAAAAAAAAAAAAAAAAAAAAAAAAAAAAAAAAAAAAAAAAAAAAAAAAAAAAAAAAAAAAAAAAAAAAAAAAAAAAAAAAAAAAAAAAAAAAAAAAAAAAAAAAAAAAAAAAAAAAAAAAAAAAAAAAAAAAAAAAAAAAAAAAAAAAAAAAAAAAAAAAAAAAAAAAAAAAAAAAAAAAAAAAAAAAAAAAAAAAAAAAAAAAAAAAAAAAAAAAAAAAAAAAAAAAAAAAAAAAAAAAAAAZnHZXYAPbpA01u4imuGRdETSUUnfSSqTdEDSV5K2Siq2rzQ04wJJ/xWCfuskzZT372+H1pJ+Lyk1BH0vl/TnEPTrq6skTQxBv5WSpkvaH4K+ERi3pK6SekrqIClNUitJKfJ+xkPxOQ8Wj6RfSdpidyGR6k55d2IkL4clrZb0d0lXSOoY1D0EKy6SVK3Q/c2/lfdLK9xaS/rEQr3+LL8M229zvBsl1ftYo5Vlo6S2Yftt0Bi3pKGS7pL0hrwHUKH8dxqOZa+k3sHcSaa4Q/b/8UK17JD0pLxHoQnB2mHwSagH/4Yl3CEgHIN/wxLuEBDqwb9hIQSEXwdJt0p6S1KJ7P9uDsVCCPDT7bL/jxau5bCk5yRNUGRckolkFyq8RxTfSsoPw++VIWlNGH8vj7yXOcLhGoVn8G9YtkrKDctvZq4kST+Sd9Cvkf3fweFY9knqG4ydF+2i+ci/pWWHpJvl/QeC4ArXkf+JS6jPBITzyP/EJdRnAsJ15H/iwpmA0Ogu6W/y3i9l93etHQtnAlpg0pF/c0uxpPvlvdkFgQv3kf+JS6jOBNhx5H/iEqozAeE+8j9x4UxA8PSV9yynKUf7zS2cCWjCdNn/x3HaclDS3eI+gUDYPfg3LME+E9BK9h35n7jMCOLvJXmf/LFz8G9YOBMQmO6S5ssZf0snLXsl9Qpgv0alXbL/D+PU5QtJk6zvWqMtlf1/v4blziD+Xuc64PdpWAqD+HtJ0nYH/E4NSygeFY12SfKewayU/X8/py4PWN25wRRjdwHwSb6kf8p700wnm2sBgKacK2mzpPvEmUvHIwBElnPlPS15id2FAMAxEiU9Iu9BSheba4GPCACRJ13Sy/LOI0DCBmC3nvLejHqz3YXAPwSAyPVzSatkz4xzACBJP5G0VtLJdhcC/xEAItsgee8EP83uQgAYxSXvjX7PyDsvPyKQ2+4CAjF06CDl5tr9qK5HZWXlqqysVGVllUpKSlVYWKSysvJwFdBG0mJJF3//XwSoT5+e6tat+cf2P/xwjfbvPxCmioIjISFBZ501odl1iouL9dFHn4SpouAZNOgUdejQvtl13n9/uY4e/S5MFUW1WHkvQV4Vrg26XC5lZWUqOztL6elpSkhIUEJCghITE8NVQpM+/nitior22V2GJREdAEaPHqHBgwfaXUajSkpKtWdPoT7//Ett2rRV27btUFVVdag2lyrpTUk/lTQ3VBsxxSmn9NOUKec0u85XX30dcQEgMTFBl132o2bXWbduQ0QGgNNOG6pRo4Y3u87atZ8RAAKXJOklSVNCuZGsrEz17dtLffv2VqdOHZSXl6v4+PhQbtKywsIiAgCOl5GRroyMdPXu3VNTppyj2tpabdv2uVas+FCrV69VRUVFsDcZL+l5SXGSng125wCMFy/vgUbzp5Esat8+T2PGjNDw4YOVk5Mdik3gBASAMHG73d8n2l762c8u18cff6p//nOJvvxyZzA3EyPvXNsHJL0dzI4BGC1G3gOMoA7+brdbY8aM0PjxY9StG/czhxsBwAYJCfEaNWq4Ro0arm3bdmjBgn/q00//Hazu3ZLmSTpT0spgdQrAaA9LmhqszuLi3BozZqQuumiyMjPbBKtb+IkAYLOePburZ8/uWrdug5566gXt21ccjG6TJC2QNFLel5oAgFWzJN0SrM5GjBimK664VK1b864zuxEAHGLAgJP18MP/o/nz39b8+W+rpqYm0C7bSHpd0mBJZQEXCMBEkyT9Khgd5eXl6qqrrlC/frwR1ymYB8BB4uLi9KMfna8HH/yVOnZs/pEmH/WS954AAPBXe3lf4xvwODF69Gl68MEHGPwdhgDgQB065GnOnHs0cuSwYHR3qbyPBwKAr2LlHfyzAukkMTFRv/jFtbrppp8rIcGZj/GZLKIvAbz55iKtXPmRzVW4lJKSrMTERKWlpSovL1d5ee2Ul5er2NhYy70mJSXq5puvU+fOHTV37mvyeDyBFPmYpNXifgAAvrlf0umBdNCmTWvNnDldHTt2CLiYsrIy7d5dpMLCIu3bV6zy8gpVVVWpsrIy4L4D9cUXX9ldgmURHQC2b//c7hKalJiYqF69uqtv314aNmyw2ra1FqSnTDlHGRkZevLJp1VXV2e1nGRJj0saJ++7qAGgKX0l/TKQDvLycjVz5p1q2zbTUnuPx6NNm7bqs8/+rU2bturbb3cHehCERkR0AHCyyspKrVu3QevWbdALL7yqXr166PTTR2vEiKF+nxkYO3akUlNT9PvfPxZICBgj6cfyPssLAI1xSfqzvBOKWdK5c0fde+8MpaWl+d324MFDWrx4qVas+EgHDx6yWgJ8RAAIA4/Hoy1btmnLlm165ZXXNXny2Ro/fozcbt93/6mnDtANN1ytxx77ayBJ+Lfyvq/7iNUOAES1yyWNtto4J6etZs68w+/Bv7h4v954Y6GWL1+l2tpaq5uHnwgAYbZ//0H9/e/P6513lurqqy9Xnz69fG47atRwlZaW6tlnX7K6+RxJsyX9wmoHAKJWK3kPEizJyEjXrFl3qlWrDJ/b1NTUasGCt/XGGwuD8egz/MRTADbZs6dQDzzwkJ588mm/XhJ0zjkTdcYZ4wLZ9LWSOgfSAYCodIskS5Pwu91uzZhxi19z+O/c+Y3uvHOWXn31DQZ/mxAAbOTxeLR06XLdffcD2rOn0Od2V145TSed1MnqZuMkzbDaGEBUSpN0s9XG06ZdrIKC5l+hfawlS97XrFlzVFi41+omEQROCgC3STLy4s+uXbs1a9Ycbd263af14+LidPvtNyopKcnqJq+SlGe1MYCoc728s4f6beDA/jrnnIk+revxePT886/ob397zuSj/h2SnrC7CMlZAeA1ee9SNzIElJWVa86c32nt2nU+rZ+bm6Np0y62urkESbdbbQwgqiTJewDmt5SUFN1ww9VyuVwtrltXV6dHH31Sb721yMqmosV2eR/H9v2Ubwg5KQBI0isyOATU1NToD3/4szZt8m2+njPOGKf8/C5WN3etpFSrjQFEjcsk5VppOG3axUpPb/mOf4/Ho7/+9RmtXLnaymaixXZ5J1dyxOAvOS8ASMaHgFr99rd/0tdff9viujExMbr66it8St+NSJV0oZWGAKLKFVYadevWVRMmjPVp3Zdffl3Llq2wsplo4bjBX3JmAJAMDwEVFRX6/e8fVXl5RYvr5ud30ciRw61uytI/fABRo6u8rw332+WXX+rTwceaNZ/qjTcWWtlEtHDUaf9jOTUASIaHgH379uvxx//u07oXXHCu1bMA4yQFPlE3gEh1ubyz//mlV68e6tWre4vrFRfv1xNP+PY9FqUaBv8iuwtpjNMnAnpF3nfZW0qoYdRa3ldn9pF0UrA6XbNmrVatWqMRI4Y2u16HDnkaOvRUrV79ib+biJH3+t+DFksEELlc8gYAv1144bk+rffkk0+rrKzcyiaaUiNpg7wD6yF5xwen8kj6kxw6+EvODwCStPD7JVJ0lnSRpJ9L6hFoZ88995IGDjy5xUf+Jk+eZCUASNJ5IgAAJuolyfeH97/XuXNH9e/fr8X1Vq1arY0bt1ip60T1khZIekbSUjl70I8oTr4EEKm+kfSwvG/U+rkCvO5z+PARn66fdevWVR06WHq0f4h4GgAwkaXX/Y4d2/IJ2ZqaGj3//CtWuj/REkmD5L1h+U0x+AcVASB0aiX9r6TukuYG0tHixUv13Xctf+5Hjx5hpfs4SaOsNAQQ0fyeUzw2Ntanm46XLVuhQ4cOWyrqe2WSpkqaKOnfgXSEphEAQq9M3psZ75b3VJbfKioqtWjRuy2uN2rUcKs3A1o6EgAQsWIkjfW3Uf/+fZWRkd7sOnV1dXrzzYAm+9kl70HJvEA6QcsIAOHhkfRrBTD73tKly1t8DXBmZht16mTppv6xVhoBiFgny8LUvwMH9m9xnQ0bNqu4eL+VmiRpv6QxknybEhUBIQCE1yOS/mql4aFDh32aIbBv395Wuu8nKdZKQwARqeWRvBG+fL988MFKK11L3jv8p0raabUD+IcAEH6/kLTJSsOVKz9qcZ2+fXtZ6TpBvCIYMInfTyi1bt1KeXnNzxhcVVXl8/tMGvHfkj6w2hj+IwCEX7Wku6w09OWRmp49u1u9D6CnlUYAIpLfAaBXr5abbNu2w+pb/nZKesxKQ1hHALDH27KQdA8cOKi9e/c1u05KSrJatcqwUlPAcxYAiBh+B/727du1uI6vLzJrxCxJVVYbwxoCgH3+YKXRjh1ftrhOXl7L/1Ab0fK8ngCiQawsTADky/eKL99PjSiUd9ZXhBkBwD6LJJX426iwsOVZJX1J6o1oa6URgIiTLu99P35p6fq/5Nv3UyNelVRnpSECQwCwT42kf/nbaM+elv+BZWb6/XSP5P1SABD9LM38mZXV/PdKWVmZSkpKrXT9vpVGCBwBwF5+z3B15MiRFtdJSkq0UgvTAQNmSLPSqKX3kRw61PJ3UxN45t8mBAB7feVvg/LyihbXaekfahM4AwCYwe8A4Ha75XY3/+64yspKK7VUS9pjpSECRwCwl9/3AFRUtPyPzOIZAEtHBQAijt//1hMTW75lwGIAOCrvTKmwAQHAXtX+NqitrW1xnZaSehPirTQCEHH8/rfuy3dKTU3L302NNbPSCMFBAAAAwEAEAAAADEQAAADAQAQAAAAMRAAAAMBABAAAAAxEAAAAwEAEAAAADEQAAADAQAQAAAAMRAAAAMBABAAAAAxk6a0xgENcLOklBflz/OKL8/Tii/OC2WWDh75fbFFSUqqpU68MRdftZPMb3R599Ek9+uiToeh67vdLU7ZLOl1SYSg2DoQSZwAQqUIy+AN+6iHpfUl5dhcC+IsAgEjE4A8nIQQgIhEAEGkY/OFEhABEHAIAIgmDP5yMEICIQgBApGDwRyQgBCBiEAAQCUaLwR+Ro4ek9+wuAmgJAQCRoEAM/ogsvewuAGgJAQAAAAMRAAAAMBABAAAAAxEAAAAwEAEAAAADcWc1olK7drm65Zbr7C4DUaCoaK8eeeQJu8sAgo4AgKiUkBCvrl1PsrsMRIGYGE6UIjrxyQYAwEAEAAAADEQAAADAQAQAAAAMRAAAAMBABAAAAAxEAAAAwEAEAAAADEQAAADAQAQAAAAMRAAAAMBABAAAAAxEAAAAwEAuuwtoQZKkNyVNsLsQAAD84JF0k6S/2F1IU2LtLqAZDP4AgEjlknS2pP2SPrG5lkY5NQAw+AMAIp2jQ4ATAwCDPwAgWjg2BDgtADD4AwCijSNDgJMCAIM/ACBaOS4EOCkAvCHpLLuLAAAgRBpCwEZJW22uxVHzAJxidwEAAISYS1J/u4uQnBUAAABAmBAAAAAwEAEAAAADEQAAADAQAQAAAAO57S4gEL+flqMxPZPtLgMAYKjpc/dp+bZyu8uwJKIDQH52nAZ1SbS7DACAoVolO2k6Hf9wCQAAAAMRAAAAMBABAAAAAxEAAAAwEAEAAAADEQAAADAQAQAAAAMRAAAAMBABAAAAAxEAAAAwEAEAAAADEQAAADAQAQAAAAMRAAAAMBABAAAAAxEAAAAwEAEAAAADEQAAADAQAQAAAAMRAAAAMBABAAAAAxEAAAAwEAEAAAADEQAAADAQAQAAAAMRAAAAMBABAAAAAxEAAAAwEAEAAAADEQAAADAQAQAAAAMRAAAAMBABAAAAAxEAAAAwEAEAAAADEQAAADAQAQAAAAMRAAAAMBABAAAAAxEAAAAwkNvuAqJJVa1Ha76o0PJt5dq8p0rbi6q1v7RWZVUeHSmvs7s8AIgI8W6XUhJi1CYlVp2y3Oqem6BBJyVqXO9kdcuJt7u8qEEACJDHIy3dUqZnV5TojbVHVVZVb3dJABDRqms9qq6t0+GyOn1ZXK1lW8p/+Fn33Hj9eESGfjIqQ50y42ysMvIRACzyeKR5H5fqfxYc0IZdVXaXAwBG2LG3Wve+vl+z5x/QZael6+7JWSrI5ayAFQQACzbsqtINzxRp1Y4Ku0sBACPV1Hn0zIoSzf2oVHecnamZUzKVHM9tbf5gb/nB45EeWXxIg+/dyeAPAA5QXevR/3vzgAbO2snZWD8RAHxUWePRxX/arVtf2KfqWo/d5QAAjrG9qFrD7t+peR+X2l1KxCAA+KC0ol5nPfSt/rH2qN2lAACaUFHt0aWP7dHjSw/bXUpEIAC0oLrWe+S/fFt5yysDAGxV75FufHavnlp+xO5SHI8A0ILLnyjUu5vK7C4DAOAjj0e67um9em8z393NIQA0409LDunVNVxPAoBIU1Pn0WV/KVTh4Vq7S3EsAkATthVWa8ZLxXaXAQCwqLi0Vlf9rcjuMhyLANCEm57bqyru9geAiPbOhu/0+ifcwN0YAkAjFq77Tku5dgQAUWHGy/tUW8cB3YmYCbAR//PmgYD7SE1N0cCB/dWrVw+1bt1KGRnpcrlcQagOAKJbTU2NDh8+or17i/XZZ+u1Y8cXqq+3/p6Vr4prNPejUl0xMiOIVUY+AsAJVn9RodVfWJ/lLyUlRRdeeJ7OOmu84uJ4UQUABOL8889RUdFezZ37mtasWWu5nz++c4gAcAIuAZzguZUlltt26tRBDz54v8477ywGfwAIknbtcjV9+k26+ebrLH+3rvumUhuZKvg4BIBj1Huk1yxOI9mxYwfNnj1T2dltg1wVAECSRo4cpttvv9Hy5VSmCT4eAeAYG3dVav/ROr/bJSUlacaMW5SUlBSCqgAADQYNOkVTp15gqe37W7i5+1gEgGOs2G7t2v/kyZOUk8ORPwCEw+TJZ1s62/rxl5WqqOZpgAYEgGNs2eP/9aH4+Hidc86ZIagGANCYuDi3zjvvLL/b1dR59Pm+6hBUFJkIAMfYXuT/B+Pkk/soMTExBNUAAJoyZMggS/cC7CjiRsAGBIBjHDjq/5zRPXoUhKASAEBzWrdupezsLL/bWbnPK1oRAI5xtNL/iSbatGkdgkoAAC1p3dr/79/SCusTCkUbAsAxrMz9n5zMnf8AYIeUlGS/21TWcBNgAwIAAMAYHg8BoAEBAAAAAxEAAAAwEAEAAAADEQAAADAQAQAAAAMRAAAAMBABAAAAAxEAAAAwkNvuAuCblStX6+DBg3aXEVJpaWkaN26UpRd8tKS+vl7vvrtMlZWVQe/bSXJzczV06KCQ9F1VVaUlS95XfX10T6VaUJCv3r172l2GZfX19dq3r1iFhXtVUlL6w98rIyNdOTnZat++nWJjY22uEk5AAIgACxa8rRdfnGd3GWHxxRdf6ZprfhLUEFBfX6/HH/+7li9fFbQ+ncrlcunKK6dp0qQzgtpvVVW1fvObP2rz5q1B7deJ3G63br/9Rp166gC7S/FZTU2NPvnkM3344cfavHmbysrKmlw3ISFBPXsWaNiwwRo+fAjTmRuMAOBwJg3+kvTeex9IUtBCgEmDv+Sd5vSZZ+ZKUtBCgHfw/4MRg78k1dbW6uGH/xwRIaC6ulqLFr2rhQsXq6Sk1Kc2VVVVWr9+k9av36TnnntJZ555uqZMOUepqSkhrhZOwz0ADrZgwT+NGvwbvPfeB/rf/3024Dm7TRv8GzSEgEWL3g24L9MG/wYNIWDt2nV2l9KkjRs3a/r0mXrxxXk+D/4nqqio1IIF/9Stt96lFSs+CnKFcDoCgEN5B/9X7S7DNoGGAFMH/wbBCAGmDv4NnBoCPB6P5s2brzlzfqd9+/YHpc/S0qN69NEn9fjjf1dtbW1Q+oTzEQAcyPTBv4HVEGD64N8gkBBg+uDfwGkhwOPx6IknntK8efND8la7ZctW6De/+YOqqqqD3jechwDgMAz+x/M3BDD4H89KCGDwP56TQsBTT72gZctWhHQbGzZs1sMPP6a6urqQbgf2IwA4yN69+xj8G/Heex9ox44vfVp33boNDP4naAgBR48e9Wn9JUuWMvifoLa2Vo8//pStNSxZ8r4WL14alm2tW7dBc+ead/+RaQgADlJXF93PVweivt63o5Fof0bdKo/Ho/p6386i8DlsnJ2frT17ivTssy+FdZsLFy7W+vWbwrpNhBcBAAAc7qmnnldNTU1Yt+nxePTUU89zU2AUIwAAgINt2rRVGzdusWXbRUX79MEHK23ZNkKPAAAADrZw4Tu2bv+tt94JyRMHsB8BAAAc6siREtuvwxcV7fX5JlxEFqYCjgIDOicqJoKi3LqvK+Xj/WhhEe92qV/HBLvL8Fl1rUcbd1XZXcZx0pNiVJAbb3cZPiutqNfne53/rPu6dRsCehwvPSlGXbPjtetgjQ5+Z72fTz9dpx49ulluD2ciAESBFfd0VkpC5CSA1Ku3q6zKOXea52S4tfaBLnaX4bNdB2vU6dYv7C7jOEPzk7Tkl53sLsNn724q05kPfmt3GS3asmWbpXYFufF68qftNK538g//79/fVOr6Z/Zq9RcVfve3ebO1OuBskTNqAIBhvv12t99tstPdWj6z83GDvySd0jlRS/+7k6WzXbt37+E+gChEAAAAhyou9n+u/1smtla7Vo2f3E2Oj9G952f53WdFRaVKS32bSAqRgwAAAA7k8XhUUVHpd7uR3ZOb/fmoHs3/vCnl5f5fOoCzEQAAwIHq6uoszT7YKiW22Z+3buHnTamudv5Nk/APAQAAAAMRAAAAMBABAAAAAxEAAAAwEAEAAAADEQAAADAQAQAAAAMRAAAAMBABAAAAAxEAAAAwEK8DjgKjZn+jmAiKchXVznkVsCTtK6nVqffutLsMn1XXOu+tbGu+rIiofVha4azPIGAHAkAUWPeN/y8MwX9U13r06U72YSBKK+rZh0CEiaDjRgAAECwEAAAADEQAAADAQAQAAAAMRABwELfbLZfLZXcZjuR2+3a/qq/rmcblcinGx0dF4uLYh41hvyDaEAAcJCenra655ieEgBNMmXK2CgryfVr3lFP6adKkCSGuKLK4XC7dcMNVSktL9Wn9iRPH69RTB4S4qsiSkBCvW265zu4ygKAiADjMhAljCQHHmDLlbF122VSf13e5XLryyssIAd9rGPzHjBnpcxu3263bb7+REPC9hIR43XXXberTp5fdpQBBRQBwIEKAl7+DfwNCgJeVwb8BIcCLwR/RjADgUKaHgClTzrE0+Df4Twg4I4hVRY6YmBjLg38D00MAgz+iHQHAwUwNAd7B/0cB9+MNAdOMCwExMTG6/vrABv8GpoYABn+YgADgcKaFgGAN/g1MCwH/GfxHBK1P00IAgz9MwXMtEWDChLHKzGyjgwcP+bT+Rx99oo0bN/u1jYKCfI0bN8qWfhukpaVp6NBBfvXvi4YQ0L17vioqfJuvftGi97Rr126/tnPqqQM0cGB/W/ptkJOTrX79evvVvy/cbrduu+1GrVjxoerrfXuRzksvva6jR4/6tZ0JE8aqa9eTbOm3QdeuJ/m8LhDJCAARYsCAk31ed8+eIr8H6tzcHE2YMNaWfsPB5XJpxIhhPq//ySef+T1Q5+d3afF3DVW/4RAX59bpp4/2ef0FC972e6Du16+Phg8fbEu/gGkIAAAQJocPH9G//rXKp3V9PdNyoqf/dUS5GU1/tdfVW3ud9AcfrFCrVhk+rTtgQH916tTB0nYQPgQAAAiDI0dK9MADD2nPnsKQbueP7/h2qdBfb7+9xOd1589/W7Nm3an8/C4hqQXBwU2AABBiR46U6Fe/ejDkg79TlJWVa86c3+rLL3faXQqaQQAAgBAqKSk1avBvQAhwPgIAAISId/D/jXGDfwNvCPgdIcChCAAAEAINg//u3WYO/g3KysoIAQ5FAACAIGPwPx4hwJkIAAAQZC+//DqD/wnKysr07LMv2V0GjkEAAIAgs/oMf7RjvzgLAQAAAAMRAAAAMBABAAAAAxEAAAAwEO8CAAAHyE53q2Nm5HwlF5fWadfBGrvLQAAi59MGAFFs6tA0PXpFrt1l+Oyxdw/rF8/ttbsMBIBLAAAAGIgAAACAgQgAAAAYiAAAAICBCAAAABiIAAAAgIEIAAAAGIgAAACAgQgAAAAYiACA73mCtA4QWh4LH0OXK/h1AJGOABCF4uPj/W7z3XdlLa5z9Oh3FmqJ87uNE1jbhy3vH2v70P9anMBK3aWlpc3+3OPx6OjRo2GpBYh2BIAolJyc6HebHTu+UE1N0y/2qK+v15Yt2/3uNyUl2e82TpCcnOR3m02btjb78+++K9PXX3/rd78m7cPPPlvf7M83b96miopKv/uN1H0IhBIBIArl5GT73aasrFyvvjq/yZ8vXLhYBw4cDEstTmCl7m++2aVly1Y0+fMXXnhFtbW1YanFCazUvW7dBn388aeN/qyqqkrPPjs3bLUA0Y63AUahzp07Wmq3YMHbKi8v1/nnn6u2bTMlSYcOHdbChYv19tuLw1qL3azW/de/PqMDBw5q4sTxSk9PkyQVFu7VvHnztWrVar/7c7lc6tSpvaVa7GZ1H/7xj49r6tQLNHHi6UpKSpLH49H27Z/r6adf1Dff7PK7v4yMdLVqlWGpviJ2mwAADVNJREFUFiCaEQCiULt2uWrdupUOHz7id9t3312md99dptTUFMXExKi01P/rrQ0SExOVn9/Fcns79ezZXTExMaqvr/erXV1dnebNm6958+YrIyNdNTU1Ki+vsFxHp04dlJaWZrm9nXr37mmpXW1trebOnadXXvmHMjPbqKKiwtK9E4HWEW6vrjmqj76w/lkJt+LSOrtLQIAIAFFq8OCBWrLkfcvtfbkpsCUDB/ZXbGxswP3YISUlWb1792jxun5zSkqav6HNF4MHDwy4D7t07XqS2rbN0v79Byy1r6urU3Hx/oDrGDp0UMB9hENxaa2KS/2/RARYxT0AUWrMmBF2l+CIGgIxduwoW7fvcrk0evRpttYQCJfLpVGjhttaQ0pKigYNGmBrDYBTEQCiVEFBvnr16mHb9jt2bK9TTuln2/aDYcSIoT/cC2GHoUNPVW5ujm3bD4ZJk86w9RG8s84ar4QEHgEEGkMAiGLTpl0sl00zoFx22VTbth0ssbGxuvji823b9tSpF9iy7WDKyEjXpEln2LLt9PQ0nXvuRFu2DUQCAkAU69GjQKefPjrs2x06dJAGDuwf9u2GwtixI205kzJ58iR16JAX9u2GwkUXnae2bbPCvt3LL79EKSkpYd8uECkIAFHuJz/5L7Vv3y5s28vKytS11/4sbNsLNZfLpZtvvlZpaalh22ZBQX5UHP03SExM1K23Xh/WG0JHjBimMWNGhm17J3K7ub+6MewXZyEARLnExETddddtYXkOOikpSTNm3KLU1Og66srMbKO77rpNCQkJId9WdnZb3XHHLyL26YmmFBTk68YbrwnLZaFu3brquut+GvLtNGfatIsj9hHYUMnISNfVV19hdxk4BgHAADk52Zo58w61bt0qZNtITU3R3XdP10kndQrZNuxUUJCvO+64KaQhICenre65586Q/p3sNHLkMF199RWKiQnd105BQb7uvnt6WMJac1JSUjRr1h2EgO9lZKTrvvvuiprLWtGCAGCIzp07avbsmerSpXPQ+27fvp1mz56pHj26Bb1vJ+nfv5/uv/8uZWUF/8mAXr16aM6ce6J+ytozzhin6dNvCsnc/KedNlT33vtLx5yBIgR4Mfg7FwHAINnZbTVnzixNnjwpKKeYY2JiNHHieP361/epfXsz/nHn53fRQw89oNGjTwvK6ez4+HhdeulFuvfeGcrISA9Chc43ePBAPfjgr9SvX5+g9JeWlqrrrvuZbr31esc98md6CGDwdzbuyDBMXFycfvzjSzRu3Ci99tqb+uijj/2e7tblcmnw4IG6+OIpUXvKvzmpqSm66aaf64wzTtdrry3Q+vUb/e7D7XZrzJgRuvBCe+6Qt1t2tvdyxyeffKZ//OMtffnlTr/7SEpK0plnnq7JkyeF9SZNfzWEgDlzfmfp94xUDP7ORwAwVPv2ebrllut0+eWXaOXK1Vq3bv33rwRufCrS2NhYdevWVQMGnKxRo4YbOWidqEePbpo5c7oKC/dqxYoPtX79Jn311ddNBqqEhHj16FGgQYNO0YgRw354WZDJBg8eqMGDB+rLL3dq1ao1Wr9+k3bv3iOPx9Po+ikpKerdu4eGDBmkIUMGKSnJ/1df28G0EMDgHxkIAIZr06a1Jk+epMmTJ6murk579xZr//4DP7xzPTExQVlZbZSbm6u4OD4ujcnLy9Ull1yoSy65UNXV1Soq2qeDBw+pqqpakpScnKTs7LbKzs6Kurv7gyU/v8sPp8nLyytUVLRXhw8f+SGQpqenKTs7S1lZmRE7wVRKivdG2TVr1tpdSsj169c76u9niQZ8o+MHsbGxat++XVjnDYg28fHx6ty5Y8S+BtkJkpOTovaaeVpaqiZMGGt3GYAkbgIEAMBIBAAAAAxEAAAAwEAEAAAADEQAAADAQAQAAAAMRAAAAMBABAAAAAxEAAAAwEAEAAAADEQAAADAQLwLIAosXrxUdXV1dpfhs4kTxzvqpTiVlZV6//1/2V2Gz5KSkjRu3Ci7yzjOwYOHIuolN1lZmRoyZJDdZRznm292afPmrXaX4bPOnTupT5+edpeBABAAosALL7zyw5vnIsH48WMcFQDKysr1zDNz7S7DZ5mZbRwXAPbsKYqofdivXx/HBYCtW7dH1D6cOHE8ASDCcQkAAAADEQAAADAQAQAAAAMRAAAAMBABAAAAAxEAAAAwEAEAAAADEQAAADAQAQAAAAMRAAAAMBABAAAAA/EugCjQvXs3VVdHzrsAYmKclTvdbrd69Ohmdxk+y8jIsLuE/yMlJTmi9mGnTu3tLuH/aN26VUTtw9zcbLtLQIAIAFHgnntm2F1CRMvISNfs2bPsLiOi5ed3YR8GaOjQUzV06Kl2lwGDOOtQDAAAhAUBAAAAAxEAAAAwEAEAAAADEQAAADAQAQAAAAMRAAAAMBABAAAAAxEAAAAwEAHgGO4Yl99tampqQlAJAKAlVr5/42L9/56PVgSAY6Qk+L87Dh8+EoJKAAAtOXTosN9t0pIY9hqwJ47RKtn/3bF7d2EIKgEANKeqqlrFxQf8btcqOTYE1UQmAsAxumbH+91m7dp18ng8IagGANCUDRs2WXoLarcc/7/noxUB4Bg98/z/YBw+fERr164LQTUAgKYsWbLMUrse7QgADQgAxxjWLclSu7lz56m2tjbI1QAAGrN+/SatX7/R73YFufHKTOUSQAMCwDFOK0hSgtv/O0T37CnSk08+E/yCAADHOXz4iP7yl79Zaju+d0qQq4lsBIBjJMfHaEJfax+Q5ctX6vnnX1Z9fX2QqwIASNK+ffs1e/ZDlp++Om9gapArimwEgBNcPiLDctu33npHv/71H1RUtC+IFQGA2Twej1atWq27737A8pNXORlunWnxAC9aue0uwGmmDEpTboZbe0usXdNfv36jbr/9bo0cOUxDhgxS7949lZKSHOQqASC61dfXq7h4vz77bL2WL1+lnTu/Cai/n43OkJtJgI5DADhBYpxL089uoztfKrbcR11dnZYvX6Xly1dJkhIS4pWRkSEXnz0AaFFNTa2OHCkJ2iXVlIQY3TYpMyh9RRMCQCOuH99ajyw+pN2HgnNnv3fCiv1B6QsA4J9bz2qjtmnc/X8i7gFoREpCjB6+LMfuMgAAAeqUGaf/Po+j/8YQAJrwoyHpunhIut1lAAAsinFJT13TztJ7XkzAXmnG365qp3wL0wMDAOw36/wsje/Dnf9NIQA0IyM5Ru/M6KicDG6VAIBIcumwdN13QVu7y3A0AkALuuXE683bOvAGKQCIEJP6p+rZa/MUw5NXzSIA+GBIfpJW3ttZHdpwJgAAnOyy0zK04LYOircwrbtpCAA+6tM+QWsf6KIJXE8CAMdxx7p03wVZeu66PMUx4Y9PCAB+yMlwa9GdHTX74rZKiucDBgBO0LdDgv41q7Puv7Atp/39QADwkzvWpVlTsrTp1/maOjSdDxsA2CQ73a2HL8vRZ3O6aLjF17mbjIvaFnXNjtMrN7XXtsK2+uPiQ3p1TakOl9XZXRYARL3+nRJ11ZgMXTW2lZLjOY61igAQoJ558Xrip7l65PIcLdlYpvc2lemDrWXaVlSt6lqP3eUBQMTLTI3VqV0SdXqfFJ3dP1V9OyTYXVJUIAAESYLbpfMGpOq8Ad73TdfVS18fqFZxaZ2OVtSrpIKzAwDgi7hYl9ISY9QmNVadMuOUmcpj2KFAAAiR2BgpPzte+dl2VwIAwP/FxRMAAAxEAAAAwEAEAAAADEQAAADAQAQAAAAMRAAAAMBABAAAAAxEAAAAwEAEAAAADEQAAADAQAQAAAAMRAAAAMBABAAAAAxEAAAAwEAEAAAADEQAAADAQAQAAAAMRAAAAMBABAAAAAxEAAAAwEAEAAAADEQAAADAQAQAAAAMRAAAAMBABAAAAAxEAAAAwEAEAAAADEQAAADAQAQAAAAMRAAAAMBABAAAAAxEAAAAwEAEAAAADEQAAADAQAQAAAAMRAAAAMBABAAAAAxEAAAAwEAEAAAADEQAAADAQC67CzjGLkkd/GmQm+FWcoKTfgUAgEn2HqlTeXW9v80ekHRfCMrxi9vuAgKxt6TW7hIAAIhIXAIAAMBABAAAAAxEAAAAwEAEAAAADOSkAFBudwEAAISBI8Y7JwWAqZIO2F0EAAAhtEjSI3YXITlrHgBJ6i/pPUlZdhcCAECQLZJ0oaRKuwuRnBcAJEIAACD6OGrwl5wZACRCAAAgejhu8JecGwAkQgAAIPItknSBpCq7CzmRkwOARAgAAEQuxw7+kvMDgCR1lzcIAAAQKeolvSWp2u5CAAAAAAAAAAAAAAAAAAAAAAAAAAAAAAAAAAAAAAAAAAAAAAAAAAAAAAAAAAAAAAAAAAAAAAAAAAAAAAAAAAAAAAAAAAAAAAAAAAAAAAAAAAAAAAAAAAAAAAAAAAAAAAAAAAAAAAAAAAAAAAAAAAAAAAAAAAAAAAAAAAAAAAAAAAAAAAAAAAAAAAAAAAAAAAAAAAAAAAAAAAAAAAAAAAAAAAAAAAAAAAAAAAAAAAAAAAAAAMDJ/j8zvN5tcCb7bgAAAABJRU5ErkJggg==;" parent="1" vertex="1">
          <mxGeometry x="356" y="-172" width="92" height="92" as="geometry" />
        </mxCell>
        <mxCell id="AIzsohapeRoaQ22Scuxk-4" value="&lt;font color=&quot;#416997&quot; style=&quot;font-size: 23px;&quot;&gt;B服务&lt;/font&gt;" style="text;html=1;strokeColor=none;fillColor=none;align=center;verticalAlign=middle;whiteSpace=wrap;rounded=0;" parent="1" vertex="1">
          <mxGeometry x="532" y="-67" width="146" height="30" as="geometry" />
        </mxCell>
        <mxCell id="G6cqeU4yG_EHuJjogdAW-2" value="" style="endArrow=classicThin;html=1;rounded=0;strokeWidth=5;strokeColor=#FFA32A;dashed=1;endFill=1;" parent="1" edge="1">
          <mxGeometry width="50" height="50" relative="1" as="geometry">
            <mxPoint x="269" y="-101" as="sourcePoint" />
            <mxPoint x="352" y="-101" as="targetPoint" />
          </mxGeometry>
        </mxCell>
        <mxCell id="G6cqeU4yG_EHuJjogdAW-3" value="" style="endArrow=classicThin;html=1;rounded=0;strokeWidth=5;strokeColor=#FFA32A;dashed=1;endFill=1;" parent="1" edge="1">
          <mxGeometry width="50" height="50" relative="1" as="geometry">
            <mxPoint x="269" y="-125.67000000000002" as="sourcePoint" />
            <mxPoint x="352" y="-125.67000000000002" as="targetPoint" />
          </mxGeometry>
        </mxCell>
        <mxCell id="G6cqeU4yG_EHuJjogdAW-4" value="" style="endArrow=classicThin;html=1;rounded=0;strokeWidth=5;strokeColor=#FFA32A;dashed=1;endFill=1;" parent="1" edge="1">
          <mxGeometry width="50" height="50" relative="1" as="geometry">
            <mxPoint x="269" y="-151" as="sourcePoint" />
            <mxPoint x="352" y="-151" as="targetPoint" />
          </mxGeometry>
        </mxCell>
        <mxCell id="7KUTrrBfIF01XJx3NzRx-1" value="" style="endArrow=classicThin;html=1;rounded=0;strokeWidth=5;strokeColor=#FFA32A;dashed=1;endFill=1;" parent="1" edge="1">
          <mxGeometry width="50" height="50" relative="1" as="geometry">
            <mxPoint x="448" y="-102" as="sourcePoint" />
            <mxPoint x="531" y="-102" as="targetPoint" />
          </mxGeometry>
        </mxCell>
        <mxCell id="7KUTrrBfIF01XJx3NzRx-2" value="" style="endArrow=classicThin;html=1;rounded=0;strokeWidth=5;strokeColor=#FFA32A;dashed=1;endFill=1;" parent="1" edge="1">
          <mxGeometry width="50" height="50" relative="1" as="geometry">
            <mxPoint x="448" y="-126.67000000000002" as="sourcePoint" />
            <mxPoint x="531" y="-126.67000000000002" as="targetPoint" />
          </mxGeometry>
        </mxCell>
        <mxCell id="7KUTrrBfIF01XJx3NzRx-3" value="" style="endArrow=classicThin;html=1;rounded=0;strokeWidth=5;strokeColor=#FFA32A;dashed=1;endFill=1;" parent="1" edge="1">
          <mxGeometry width="50" height="50" relative="1" as="geometry">
            <mxPoint x="448" y="-152" as="sourcePoint" />
            <mxPoint x="531" y="-152" as="targetPoint" />
          </mxGeometry>
        </mxCell>
      </root>
    </mxGraphModel>
  </diagram>
</mxfile>
